<?xml version="1.0" encoding="UTF-8"?>
<svg xmlns="http://www.w3.org/2000/svg" xmlns:xlink="http://www.w3.org/1999/xlink" width="428pt" height="173pt" viewBox="0 0 428 173" version="1.1">
<defs>
<clipPath id="clip1">
  <path d="M 0 0.960938 L 70.078125 0.960938 L 70.078125 81.359375 L 0 81.359375 Z M 0 0.960938 "/>
</clipPath>
<clipPath id="clip2">
  <path d="M 69.839844 6.238281 L 139.921875 6.238281 L 139.921875 76.320313 L 69.839844 76.320313 Z M 69.839844 6.238281 "/>
</clipPath>
<clipPath id="clip3">
  <path d="M 139.921875 3.839844 L 210 3.839844 L 210 77.28125 L 139.921875 77.28125 Z M 139.921875 3.839844 "/>
</clipPath>
<clipPath id="clip4">
  <path d="M 210 10.320313 L 280.078125 10.320313 L 280.078125 71.28125 L 210 71.28125 Z M 210 10.320313 "/>
</clipPath>
<clipPath id="clip5">
  <path d="M 279.839844 4.558594 L 349.921875 4.558594 L 349.921875 76.320313 L 279.839844 76.320313 Z M 279.839844 4.558594 "/>
</clipPath>
<clipPath id="clip6">
  <path d="M 349.921875 6.238281 L 420 6.238281 L 420 76.320313 L 349.921875 76.320313 Z M 349.921875 6.238281 "/>
</clipPath>
<clipPath id="clip7">
  <path d="M 7.441406 100.078125 L 77.519531 100.078125 L 77.519531 171.121094 L 7.441406 171.121094 Z M 7.441406 100.078125 "/>
</clipPath>
<clipPath id="clip8">
  <path d="M 77.519531 102.480469 L 147.601563 102.480469 L 147.601563 169.199219 L 77.519531 169.199219 Z M 77.519531 102.480469 "/>
</clipPath>
<clipPath id="clip9">
  <path d="M 147.601563 100.320313 L 217.679688 100.320313 L 217.679688 171.121094 L 147.601563 171.121094 Z M 147.601563 100.320313 "/>
</clipPath>
<clipPath id="clip10">
  <path d="M 217.441406 101.039063 L 287.519531 101.039063 L 287.519531 171.121094 L 217.441406 171.121094 Z M 217.441406 101.039063 "/>
</clipPath>
<clipPath id="clip11">
  <path d="M 287.519531 100.558594 L 357.601563 100.558594 L 357.601563 171.121094 L 287.519531 171.121094 Z M 287.519531 100.558594 "/>
</clipPath>
<clipPath id="clip12">
  <path d="M 357.601563 101.761719 L 427.679688 101.761719 L 427.679688 170.160156 L 357.601563 170.160156 Z M 357.601563 101.761719 "/>
</clipPath>
</defs>
<g id="surface6">
<path style=" stroke:none;fill-rule:nonzero;fill:rgb(99.998474%,84.999084%,84.999084%);fill-opacity:1;" d="M 1.398438 2.34375 L 1.398438 79.941406 L 68.601563 41.140625 Z M 1.398438 2.34375 "/>
<g clip-path="url(#clip1)" clip-rule="nonzero">
<path style="fill:none;stroke-width:1;stroke-linecap:square;stroke-linejoin:miter;stroke:rgb(99.998474%,84.999084%,84.999084%);stroke-opacity:1;stroke-miterlimit:3.25;" d="M 67.398438 10.34375 L 67.398438 87.941406 L 134.601563 49.140625 Z M 67.398438 10.34375 " transform="matrix(1,0,0,1,-66,-8)"/>
<path style="fill:none;stroke-width:1;stroke-linecap:square;stroke-linejoin:miter;stroke:rgb(0%,0%,0%);stroke-opacity:1;stroke-miterlimit:3.25;" d="M 67.398438 10.34375 L 67.398438 87.941406 L 134.601563 49.140625 Z M 67.398438 10.34375 " transform="matrix(1,0,0,1,-66,-8)"/>
</g>
<path style=" stroke:none;fill-rule:nonzero;fill:rgb(99.998474%,84.999084%,84.999084%);fill-opacity:1;" d="M 105 7.738281 L 71.398438 41.339844 L 105 74.941406 L 138.601563 41.339844 Z M 105 7.738281 "/>
<g clip-path="url(#clip2)" clip-rule="nonzero">
<path style="fill:none;stroke-width:1;stroke-linecap:square;stroke-linejoin:miter;stroke:rgb(99.998474%,84.999084%,84.999084%);stroke-opacity:1;stroke-miterlimit:3.25;" d="M 171 15.738281 L 137.398438 49.339844 L 171 82.941406 L 204.601563 49.339844 Z M 171 15.738281 " transform="matrix(1,0,0,1,-66,-8)"/>
<path style="fill:none;stroke-width:1;stroke-linecap:square;stroke-linejoin:miter;stroke:rgb(0%,0%,0%);stroke-opacity:1;stroke-miterlimit:3.25;" d="M 171 15.738281 L 137.398438 49.339844 L 171 82.941406 L 204.601563 49.339844 Z M 171 15.738281 " transform="matrix(1,0,0,1,-66,-8)"/>
</g>
<path style=" stroke:none;fill-rule:nonzero;fill:rgb(99.998474%,84.999084%,84.999084%);fill-opacity:1;" d="M 182.933594 5.28125 L 141.398438 18.777344 L 141.398438 62.445313 L 182.933594 75.941406 L 208.601563 40.609375 Z M 182.933594 5.28125 "/>
<g clip-path="url(#clip3)" clip-rule="nonzero">
<path style="fill:none;stroke-width:1;stroke-linecap:square;stroke-linejoin:miter;stroke:rgb(99.998474%,84.999084%,84.999084%);stroke-opacity:1;stroke-miterlimit:3.25;" d="M 248.933594 13.28125 L 207.398438 26.777344 L 207.398438 70.445313 L 248.933594 83.941406 L 274.601563 48.609375 Z M 248.933594 13.28125 " transform="matrix(1,0,0,1,-66,-8)"/>
<path style="fill:none;stroke-width:1;stroke-linecap:square;stroke-linejoin:miter;stroke:rgb(0%,0%,0%);stroke-opacity:1;stroke-miterlimit:3.25;" d="M 248.933594 13.28125 L 207.398438 26.777344 L 207.398438 70.445313 L 248.933594 83.941406 L 274.601563 48.609375 Z M 248.933594 13.28125 " transform="matrix(1,0,0,1,-66,-8)"/>
</g>
<path style=" stroke:none;fill-rule:nonzero;fill:rgb(99.998474%,84.999084%,84.999084%);fill-opacity:1;" d="M 261.800781 11.742188 L 228.199219 11.742188 L 211.398438 40.839844 L 228.199219 69.941406 L 261.800781 69.941406 L 278.601563 40.839844 Z M 261.800781 11.742188 "/>
<g clip-path="url(#clip4)" clip-rule="nonzero">
<path style="fill:none;stroke-width:1;stroke-linecap:square;stroke-linejoin:miter;stroke:rgb(99.998474%,84.999084%,84.999084%);stroke-opacity:1;stroke-miterlimit:3.25;" d="M 327.800781 19.742188 L 294.199219 19.742188 L 277.398438 48.839844 L 294.199219 77.941406 L 327.800781 77.941406 L 344.601563 48.839844 Z M 327.800781 19.742188 " transform="matrix(1,0,0,1,-66,-8)"/>
<path style="fill:none;stroke-width:1;stroke-linecap:square;stroke-linejoin:miter;stroke:rgb(0%,0%,0%);stroke-opacity:1;stroke-miterlimit:3.25;" d="M 327.800781 19.742188 L 294.199219 19.742188 L 277.398438 48.839844 L 294.199219 77.941406 L 327.800781 77.941406 L 344.601563 48.839844 Z M 327.800781 19.742188 " transform="matrix(1,0,0,1,-66,-8)"/>
</g>
<path style=" stroke:none;fill-rule:nonzero;fill:rgb(99.998474%,84.999084%,84.999084%);fill-opacity:1;" d="M 335.289063 12.835938 L 305.382813 6.011719 L 281.398438 25.136719 L 281.398438 55.8125 L 305.382813 74.941406 L 335.289063 68.113281 L 348.601563 40.476563 Z M 335.289063 12.835938 "/>
<g clip-path="url(#clip5)" clip-rule="nonzero">
<path style="fill:none;stroke-width:1;stroke-linecap:square;stroke-linejoin:miter;stroke:rgb(99.998474%,84.999084%,84.999084%);stroke-opacity:1;stroke-miterlimit:3.25;" d="M 401.289063 20.835938 L 371.382813 14.011719 L 347.398438 33.136719 L 347.398438 63.8125 L 371.382813 82.941406 L 401.289063 76.113281 L 414.601563 48.476563 Z M 401.289063 20.835938 " transform="matrix(1,0,0,1,-66,-8)"/>
<path style="fill:none;stroke-width:1;stroke-linecap:square;stroke-linejoin:miter;stroke:rgb(0%,0%,0%);stroke-opacity:1;stroke-miterlimit:3.25;" d="M 401.289063 20.835938 L 371.382813 14.011719 L 347.398438 33.136719 L 347.398438 63.8125 L 371.382813 82.941406 L 401.289063 76.113281 L 414.601563 48.476563 Z M 401.289063 20.835938 " transform="matrix(1,0,0,1,-66,-8)"/>
</g>
<path style=" stroke:none;fill-rule:nonzero;fill:rgb(99.998474%,84.999084%,84.999084%);fill-opacity:1;" d="M 408.757813 17.582031 L 385 7.738281 L 361.242188 17.582031 L 351.398438 41.339844 L 361.242188 65.097656 L 385 74.941406 L 408.757813 65.097656 L 418.601563 41.339844 Z M 408.757813 17.582031 "/>
<g clip-path="url(#clip6)" clip-rule="nonzero">
<path style="fill:none;stroke-width:1;stroke-linecap:square;stroke-linejoin:miter;stroke:rgb(99.998474%,84.999084%,84.999084%);stroke-opacity:1;stroke-miterlimit:3.25;" d="M 474.757813 25.582031 L 451 15.738281 L 427.242188 25.582031 L 417.398438 49.339844 L 427.242188 73.097656 L 451 82.941406 L 474.757813 73.097656 L 484.601563 49.339844 Z M 474.757813 25.582031 " transform="matrix(1,0,0,1,-66,-8)"/>
<path style="fill:none;stroke-width:1;stroke-linecap:square;stroke-linejoin:miter;stroke:rgb(0%,0%,0%);stroke-opacity:1;stroke-miterlimit:3.25;" d="M 474.757813 25.582031 L 451 15.738281 L 427.242188 25.582031 L 417.398438 49.339844 L 427.242188 73.097656 L 451 82.941406 L 474.757813 73.097656 L 484.601563 49.339844 Z M 474.757813 25.582031 " transform="matrix(1,0,0,1,-66,-8)"/>
</g>
<path style=" stroke:none;fill-rule:nonzero;fill:rgb(99.998474%,84.999084%,84.999084%);fill-opacity:1;" d="M 68.140625 113.378906 L 47.617188 101.527344 L 24.28125 105.644531 L 9.046875 123.796875 L 9.046875 147.496094 L 24.28125 165.652344 L 47.617188 169.765625 L 68.140625 157.917969 L 76.246094 135.648438 Z M 68.140625 113.378906 "/>
<g clip-path="url(#clip7)" clip-rule="nonzero">
<path style="fill:none;stroke-width:1;stroke-linecap:square;stroke-linejoin:miter;stroke:rgb(99.998474%,84.999084%,84.999084%);stroke-opacity:1;stroke-miterlimit:3.25;" d="M 134.140625 121.378906 L 113.617188 109.527344 L 90.28125 113.644531 L 75.046875 131.796875 L 75.046875 155.496094 L 90.28125 173.652344 L 113.617188 177.765625 L 134.140625 165.917969 L 142.246094 143.648438 Z M 134.140625 121.378906 " transform="matrix(1,0,0,1,-66,-8)"/>
<path style="fill:none;stroke-width:1;stroke-linecap:square;stroke-linejoin:miter;stroke:rgb(0%,0%,0%);stroke-opacity:1;stroke-miterlimit:3.25;" d="M 134.140625 121.378906 L 113.617188 109.527344 L 90.28125 113.644531 L 75.046875 131.796875 L 75.046875 155.496094 L 90.28125 173.652344 L 113.617188 177.765625 L 134.140625 165.917969 L 142.246094 143.648438 Z M 134.140625 121.378906 " transform="matrix(1,0,0,1,-66,-8)"/>
</g>
<path style=" stroke:none;fill-rule:nonzero;fill:rgb(99.998474%,84.999084%,84.999084%);fill-opacity:1;" d="M 139.832031 116.058594 L 123.03125 103.855469 L 102.265625 103.855469 L 85.464844 116.058594 L 79.046875 135.808594 L 85.464844 155.558594 L 102.265625 167.765625 L 123.03125 167.765625 L 139.832031 155.558594 L 146.246094 135.808594 Z M 139.832031 116.058594 "/>
<g clip-path="url(#clip8)" clip-rule="nonzero">
<path style="fill:none;stroke-width:1;stroke-linecap:square;stroke-linejoin:miter;stroke:rgb(99.998474%,84.999084%,84.999084%);stroke-opacity:1;stroke-miterlimit:3.25;" d="M 205.832031 124.058594 L 189.03125 111.855469 L 168.265625 111.855469 L 151.464844 124.058594 L 145.046875 143.808594 L 151.464844 163.558594 L 168.265625 175.765625 L 189.03125 175.765625 L 205.832031 163.558594 L 212.246094 143.808594 Z M 205.832031 124.058594 " transform="matrix(1,0,0,1,-66,-8)"/>
<path style="fill:none;stroke-width:1;stroke-linecap:square;stroke-linejoin:miter;stroke:rgb(0%,0%,0%);stroke-opacity:1;stroke-miterlimit:3.25;" d="M 205.832031 124.058594 L 189.03125 111.855469 L 168.265625 111.855469 L 151.464844 124.058594 L 145.046875 143.808594 L 151.464844 163.558594 L 168.265625 175.765625 L 189.03125 175.765625 L 205.832031 163.558594 L 212.246094 143.808594 Z M 205.832031 124.058594 " transform="matrix(1,0,0,1,-66,-8)"/>
</g>
<path style=" stroke:none;fill-rule:nonzero;fill:rgb(99.998474%,84.999084%,84.999084%);fill-opacity:1;" d="M 210.804688 117.277344 L 196.199219 104.625 L 177.070313 101.875 L 159.496094 109.902344 L 149.046875 126.15625 L 149.046875 145.480469 L 159.496094 161.738281 L 177.070313 169.765625 L 196.199219 167.015625 L 210.804688 154.359375 L 216.246094 135.820313 Z M 210.804688 117.277344 "/>
<g clip-path="url(#clip9)" clip-rule="nonzero">
<path style="fill:none;stroke-width:1;stroke-linecap:square;stroke-linejoin:miter;stroke:rgb(99.998474%,84.999084%,84.999084%);stroke-opacity:1;stroke-miterlimit:3.25;" d="M 276.804688 125.277344 L 262.199219 112.625 L 243.070313 109.875 L 225.496094 117.902344 L 215.046875 134.15625 L 215.046875 153.480469 L 225.496094 169.738281 L 243.070313 177.765625 L 262.199219 175.015625 L 276.804688 162.359375 L 282.246094 143.820313 Z M 276.804688 125.277344 " transform="matrix(1,0,0,1,-66,-8)"/>
<path style="fill:none;stroke-width:1;stroke-linecap:square;stroke-linejoin:miter;stroke:rgb(0%,0%,0%);stroke-opacity:1;stroke-miterlimit:3.25;" d="M 276.804688 125.277344 L 262.199219 112.625 L 243.070313 109.875 L 225.496094 117.902344 L 215.046875 134.15625 L 215.046875 153.480469 L 225.496094 169.738281 L 243.070313 177.765625 L 262.199219 175.015625 L 276.804688 162.359375 L 282.246094 143.820313 Z M 276.804688 125.277344 " transform="matrix(1,0,0,1,-66,-8)"/>
</g>
<path style=" stroke:none;fill-rule:nonzero;fill:rgb(99.998474%,84.999084%,84.999084%);fill-opacity:1;" d="M 281.746094 119.367188 L 269.449219 107.066406 L 252.648438 102.566406 L 235.847656 107.066406 L 223.550781 119.367188 L 219.046875 136.164063 L 223.550781 152.964844 L 235.847656 165.265625 L 252.648438 169.765625 L 269.449219 165.265625 L 281.746094 152.964844 L 286.246094 136.164063 Z M 281.746094 119.367188 "/>
<g clip-path="url(#clip10)" clip-rule="nonzero">
<path style="fill:none;stroke-width:1;stroke-linecap:square;stroke-linejoin:miter;stroke:rgb(99.998474%,84.999084%,84.999084%);stroke-opacity:1;stroke-miterlimit:3.25;" d="M 347.746094 127.367188 L 335.449219 115.066406 L 318.648438 110.566406 L 301.847656 115.066406 L 289.550781 127.367188 L 285.046875 144.164063 L 289.550781 160.964844 L 301.847656 173.265625 L 318.648438 177.765625 L 335.449219 173.265625 L 347.746094 160.964844 L 352.246094 144.164063 Z M 347.746094 127.367188 " transform="matrix(1,0,0,1,-66,-8)"/>
<path style="fill:none;stroke-width:1;stroke-linecap:square;stroke-linejoin:miter;stroke:rgb(0%,0%,0%);stroke-opacity:1;stroke-miterlimit:3.25;" d="M 347.746094 127.367188 L 335.449219 115.066406 L 318.648438 110.566406 L 301.847656 115.066406 L 289.550781 127.367188 L 285.046875 144.164063 L 289.550781 160.964844 L 301.847656 173.265625 L 318.648438 177.765625 L 335.449219 173.265625 L 347.746094 160.964844 L 352.246094 144.164063 Z M 347.746094 127.367188 " transform="matrix(1,0,0,1,-66,-8)"/>
</g>
<path style=" stroke:none;fill-rule:nonzero;fill:rgb(99.998474%,84.999084%,84.999084%);fill-opacity:1;" d="M 352.34375 120.074219 L 341.519531 107.859375 L 326.261719 102.070313 L 310.0625 104.039063 L 296.632813 113.308594 L 289.046875 127.757813 L 289.046875 144.078125 L 296.632813 158.527344 L 310.0625 167.796875 L 326.261719 169.765625 L 341.519531 163.980469 L 352.34375 151.765625 L 356.246094 135.917969 Z M 352.34375 120.074219 "/>
<g clip-path="url(#clip11)" clip-rule="nonzero">
<path style="fill:none;stroke-width:1;stroke-linecap:square;stroke-linejoin:miter;stroke:rgb(99.998474%,84.999084%,84.999084%);stroke-opacity:1;stroke-miterlimit:3.25;" d="M 418.34375 128.074219 L 407.519531 115.859375 L 392.261719 110.070313 L 376.0625 112.039063 L 362.632813 121.308594 L 355.046875 135.757813 L 355.046875 152.078125 L 362.632813 166.527344 L 376.0625 175.796875 L 392.261719 177.765625 L 407.519531 171.980469 L 418.34375 159.765625 L 422.246094 143.917969 Z M 418.34375 128.074219 " transform="matrix(1,0,0,1,-66,-8)"/>
<path style="fill:none;stroke-width:1;stroke-linecap:square;stroke-linejoin:miter;stroke:rgb(0%,0%,0%);stroke-opacity:1;stroke-miterlimit:3.25;" d="M 418.34375 128.074219 L 407.519531 115.859375 L 392.261719 110.070313 L 376.0625 112.039063 L 362.632813 121.308594 L 355.046875 135.757813 L 355.046875 152.078125 L 362.632813 166.527344 L 376.0625 175.796875 L 392.261719 177.765625 L 407.519531 171.980469 L 418.34375 159.765625 L 422.246094 143.917969 Z M 418.34375 128.074219 " transform="matrix(1,0,0,1,-66,-8)"/>
</g>
<path style=" stroke:none;fill-rule:nonzero;fill:rgb(99.998474%,84.999084%,84.999084%);fill-opacity:1;" d="M 422.921875 121.429688 L 413.597656 109.738281 L 400.125 103.25 L 385.171875 103.25 L 371.699219 109.738281 L 362.375 121.429688 L 359.046875 136.007813 L 362.375 150.585938 L 371.699219 162.277344 L 385.171875 168.765625 L 400.125 168.765625 L 413.597656 162.277344 L 422.921875 150.585938 L 426.246094 136.007813 Z M 422.921875 121.429688 "/>
<g clip-path="url(#clip12)" clip-rule="nonzero">
<path style="fill:none;stroke-width:1;stroke-linecap:square;stroke-linejoin:miter;stroke:rgb(99.998474%,84.999084%,84.999084%);stroke-opacity:1;stroke-miterlimit:3.25;" d="M 488.921875 129.429688 L 479.597656 117.738281 L 466.125 111.25 L 451.171875 111.25 L 437.699219 117.738281 L 428.375 129.429688 L 425.046875 144.007813 L 428.375 158.585938 L 437.699219 170.277344 L 451.171875 176.765625 L 466.125 176.765625 L 479.597656 170.277344 L 488.921875 158.585938 L 492.246094 144.007813 Z M 488.921875 129.429688 " transform="matrix(1,0,0,1,-66,-8)"/>
<path style="fill:none;stroke-width:1;stroke-linecap:square;stroke-linejoin:miter;stroke:rgb(0%,0%,0%);stroke-opacity:1;stroke-miterlimit:3.25;" d="M 488.921875 129.429688 L 479.597656 117.738281 L 466.125 111.25 L 451.171875 111.25 L 437.699219 117.738281 L 428.375 129.429688 L 425.046875 144.007813 L 428.375 158.585938 L 437.699219 170.277344 L 451.171875 176.765625 L 466.125 176.765625 L 479.597656 170.277344 L 488.921875 158.585938 L 492.246094 144.007813 Z M 488.921875 129.429688 " transform="matrix(1,0,0,1,-66,-8)"/>
</g>
</g>
</svg>
